<?xml version="1.0" encoding="UTF-8" standalone="no"?>
<!DOCTYPE svg PUBLIC "-//W3C//DTD SVG 1.1//EN" "http://www.w3.org/Graphics/SVG/1.1/DTD/svg11.dtd">
<svg width="100%" height="100%" viewBox="0 0 2017 2205" version="1.1" xmlns="http://www.w3.org/2000/svg" xmlns:xlink="http://www.w3.org/1999/xlink" xml:space="preserve" xmlns:serif="http://www.serif.com/" style="fill-rule:evenodd;clip-rule:evenodd;stroke-linejoin:round;stroke-miterlimit:2;">
    <g id="Layer-1" serif:id="Layer 1" transform="matrix(4.16667,0,0,4.16667,0,0)">
        <g transform="matrix(1,0,0,1,289.139,345.538)">
            <path d="M0,-161.692C24.807,-129.842 50.355,-104.287 73.682,-85.029L32.583,-85.029C33.323,-83.547 34.064,-82.436 34.804,-80.955C35.175,-80.214 35.545,-79.473 35.915,-78.733C71.09,-35.401 90.732,-15.327 123.315,10.598L84.437,10.598C109.245,45.782 149.956,89.778 172.912,113.481L-12.959,113.481L-12.959,159.522L-47.023,159.522L-47.023,-100.584C-34.434,-65.77 -23.697,-45.031 -12.959,-27.254L-12.959,51.262L52.207,51.262C34.434,17.189 -6.665,-78.362 -15.921,-116.509C-32.723,-185.133 -47.091,-278.752 -47.091,-311.44L-47.091,-321.214L-31.791,-269.011C-25.366,-242.961 -15.554,-217.203 3.101,-197.48C13.858,-186.107 24.403,-176.277 34.434,-167.988L-2.222,-167.988C-1.481,-165.766 -0.741,-163.544 0,-161.692" style="fill:rgb(175,175,175);"/>
        </g>
        <g transform="matrix(1,0,0,1,242.264,70.9)">
            <path d="M0,387.504L88.344,387.504C76.968,383.76 64.368,375.336 53.208,363.312C42.48,350.856 35.352,337.536 32.904,325.224L0,325.224L0,174.024C-12.6,208.872 -23.328,229.608 -34.056,247.32L-34.056,325.944L-99.216,325.944C-81.504,291.888 -40.392,196.272 -31.104,158.112C-14.328,89.496 0,-3.888 0,-36.936L0,-46.656L-15.264,5.616C-21.744,31.608 -31.464,57.456 -50.112,77.112C-60.84,88.56 -71.424,98.352 -81.504,106.704L-44.856,106.704C-45.576,108.864 -46.296,111.096 -47.016,112.896C-71.928,144.792 -97.416,170.352 -120.744,189.576L-79.704,189.576C-80.352,191.088 -81.144,192.168 -81.864,193.68C-82.296,194.472 -82.512,195.12 -82.944,195.912C-118.152,239.256 -137.808,259.344 -170.352,285.264L-131.472,285.264C-156.312,320.472 -196.992,364.392 -219.96,388.08L-34.056,388.08L-34.056,434.16L0,434.16L0,387.504Z" style="fill:rgb(125,194,68);"/>
        </g>
    </g>
</svg>
